<svg width="500" height="500" viewBox="0 0 500 500" fill="none" xmlns="http://www.w3.org/2000/svg">
<rect width="500" height="500" rx="132" fill="black"/>
<path d="M75.655 256.45C75.655 236.68 79.3331 219.324 86.6894 204.381C94.2755 189.439 104.505 177.945 117.379 169.899C130.252 161.853 144.62 157.83 160.481 157.83C174.044 157.83 185.883 160.589 195.998 166.106C206.343 171.623 214.274 178.865 219.791 187.83V160.589H278.756V353H219.791V325.759C214.044 334.724 205.998 341.966 195.653 347.483C185.539 353 173.7 355.759 160.137 355.759C144.505 355.759 130.252 351.736 117.379 343.69C104.505 335.414 94.2755 323.805 86.6894 308.863C79.3331 293.69 75.655 276.219 75.655 256.45ZM219.791 256.794C219.791 242.082 215.653 230.473 207.377 221.967C199.331 213.462 189.447 209.209 177.723 209.209C165.999 209.209 155.999 213.462 147.723 221.967C139.677 230.243 135.654 241.737 135.654 256.45C135.654 271.162 139.677 282.886 147.723 291.622C155.999 300.127 165.999 304.38 177.723 304.38C189.447 304.38 199.331 300.127 207.377 291.622C215.653 283.116 219.791 271.507 219.791 256.794Z" fill="white"/>
<path d="M427.345 256.45C427.345 236.68 423.667 219.324 416.311 204.381C408.725 189.439 398.495 177.945 385.621 169.899C372.748 161.853 358.38 157.83 342.519 157.83C328.956 157.83 317.117 160.589 307.002 166.106C296.657 171.623 288.726 178.865 283.209 187.83V160.589H224.244V353H283.209V325.759C288.956 334.724 297.002 341.966 307.347 347.483C317.461 353 329.3 355.759 342.863 355.759C358.495 355.759 372.748 351.736 385.621 343.69C398.495 335.414 408.725 323.805 416.311 308.863C423.667 293.69 427.345 276.219 427.345 256.45ZM283.209 256.794C283.209 242.082 287.347 230.473 295.623 221.967C303.669 213.462 313.553 209.209 325.277 209.209C337.001 209.209 347.001 213.462 355.277 221.967C363.323 230.243 367.346 241.737 367.346 256.45C367.346 271.162 363.323 282.886 355.277 291.622C347.001 300.127 337.001 304.38 325.277 304.38C313.553 304.38 303.669 300.127 295.623 291.622C287.347 283.116 283.209 271.507 283.209 256.794Z" fill="white"/>
</svg>
