<svg width="915" height="215" viewBox="0 0 915 215" fill="none" xmlns="http://www.w3.org/2000/svg">
<path d="M158.24 0H56.76C25.4123 0 0 25.4123 0 56.76V158.24C0 189.588 25.4123 215 56.76 215H158.24C189.588 215 215 189.588 215 158.24V56.76C215 25.4123 189.588 0 158.24 0Z" fill="black"/>
<path d="M27 107.407C27 98.9055 28.5816 91.4424 31.7448 85.0169C35.0068 78.5919 39.4055 73.6495 44.9413 70.1897C50.4767 66.7299 56.655 65 63.4752 65C69.3073 65 74.398 66.1864 78.7475 68.5587C83.1958 70.931 86.6062 74.0451 88.9785 77.9V66.1864H114.333V148.923H88.9785V137.209C86.5073 141.064 83.0475 144.178 78.5991 146.551C74.2501 148.923 69.1593 150.109 63.3273 150.109C56.6055 150.109 50.4767 148.38 44.9413 144.92C39.4055 141.361 35.0068 136.369 31.7448 129.944C28.5816 123.42 27 115.907 27 107.407ZM88.9785 107.555C88.9785 101.228 87.1991 96.2365 83.6405 92.5789C80.1807 88.9218 75.9306 87.093 70.8892 87.093C65.8479 87.093 61.5479 88.9218 57.9892 92.5789C54.5295 96.1376 52.7996 101.08 52.7996 107.407C52.7996 113.733 54.5295 118.774 57.9892 122.531C61.5479 126.188 65.8479 128.017 70.8892 128.017C75.9306 128.017 80.1807 126.188 83.6405 122.531C87.1991 118.873 88.9785 113.881 88.9785 107.555Z" fill="white"/>
<path d="M188.802 107.407C188.802 98.9055 187.22 91.4424 184.057 85.0169C180.795 78.5919 176.396 73.6495 170.86 70.1897C165.325 66.7299 159.147 65 152.327 65C146.495 65 141.404 66.1864 137.054 68.5587C132.606 70.931 129.196 74.0451 126.823 77.9V66.1864H101.468V148.923H126.823V137.209C129.295 141.064 132.754 144.178 137.203 146.551C141.552 148.923 146.642 150.109 152.475 150.109C159.196 150.109 165.325 148.38 170.86 144.92C176.396 141.361 180.795 136.369 184.057 129.944C187.22 123.42 188.802 115.907 188.802 107.407ZM126.823 107.555C126.823 101.228 128.603 96.2365 132.161 92.5789C135.621 88.9218 139.871 87.093 144.913 87.093C149.954 87.093 154.254 88.9218 157.813 92.5789C161.272 96.1376 163.002 101.08 163.002 107.407C163.002 113.733 161.272 118.774 157.813 122.531C154.254 126.188 149.954 128.017 144.913 128.017C139.871 128.017 135.621 126.188 132.161 122.531C128.603 118.873 126.823 113.881 126.823 107.555Z" fill="white"/>
<path d="M236.229 115.714C236.229 111.151 237.078 107.145 238.776 103.696C240.527 100.247 242.888 97.5939 245.859 95.7367C248.831 93.8796 252.147 92.951 255.808 92.951C258.939 92.951 261.671 93.5878 264.006 94.8612C266.394 96.1347 268.224 97.8061 269.498 99.8755V93.5878H283.108V138H269.498V131.712C268.171 133.782 266.314 135.453 263.927 136.727C261.592 138 258.859 138.637 255.729 138.637C252.12 138.637 248.831 137.708 245.859 135.851C242.888 133.941 240.527 131.261 238.776 127.812C237.078 124.31 236.229 120.278 236.229 115.714ZM269.498 115.794C269.498 112.398 268.543 109.718 266.633 107.755C264.776 105.792 262.494 104.81 259.788 104.81C257.082 104.81 254.773 105.792 252.863 107.755C251.006 109.665 250.078 112.318 250.078 115.714C250.078 119.11 251.006 121.816 252.863 123.833C254.773 125.796 257.082 126.778 259.788 126.778C262.494 126.778 264.776 125.796 266.633 123.833C268.543 121.869 269.498 119.19 269.498 115.794ZM306.565 79.1021V138H292.955V79.1021H306.565ZM330.588 115.714C330.588 111.151 331.437 107.145 333.135 103.696C334.886 100.247 337.248 97.5939 340.219 95.7367C343.19 93.8796 346.507 92.951 350.168 92.951C353.299 92.951 356.031 93.5878 358.366 94.8612C360.754 96.1347 362.584 97.8061 363.858 99.8755V93.5878H377.468V138H363.858V131.712C362.531 133.782 360.674 135.453 358.286 136.727C355.952 138 353.219 138.637 350.088 138.637C346.48 138.637 343.19 137.708 340.219 135.851C337.248 133.941 334.886 131.261 333.135 127.812C331.437 124.31 330.588 120.278 330.588 115.714ZM363.858 115.794C363.858 112.398 362.903 109.718 360.992 107.755C359.135 105.792 356.854 104.81 354.148 104.81C351.441 104.81 349.133 105.792 347.223 107.755C345.366 109.665 344.437 112.318 344.437 115.714C344.437 119.11 345.366 121.816 347.223 123.833C349.133 125.796 351.441 126.778 354.148 126.778C356.854 126.778 359.135 125.796 360.992 123.833C362.903 121.869 363.858 119.19 363.858 115.794ZM400.925 79.1021V138H387.314V79.1021H400.925ZM452.653 115.078C452.653 116.351 452.573 117.678 452.414 119.057H421.612C421.824 121.816 422.7 123.939 424.239 125.424C425.831 126.857 427.767 127.573 430.049 127.573C433.445 127.573 435.806 126.141 437.133 123.276H451.618C450.875 126.194 449.522 128.82 447.559 131.155C445.649 133.49 443.235 135.32 440.316 136.647C437.398 137.973 434.135 138.637 430.526 138.637C426.175 138.637 422.302 137.708 418.906 135.851C415.51 133.994 412.857 131.341 410.947 127.892C409.037 124.443 408.082 120.41 408.082 115.794C408.082 111.178 409.01 107.145 410.867 103.696C412.778 100.247 415.431 97.5939 418.826 95.7367C422.222 93.8796 426.122 92.951 430.526 92.951C434.824 92.951 438.645 93.8531 441.988 95.6572C445.331 97.4612 447.931 100.035 449.788 103.378C451.698 106.72 452.653 110.62 452.653 115.078ZM438.724 111.496C438.724 109.161 437.929 107.304 436.337 105.924C434.745 104.545 432.755 103.855 430.367 103.855C428.086 103.855 426.149 104.518 424.557 105.845C423.018 107.171 422.063 109.055 421.692 111.496H438.724ZM501.698 115.078C501.698 116.351 501.619 117.678 501.46 119.057H470.658C470.87 121.816 471.745 123.939 473.284 125.424C474.876 126.857 476.813 127.573 479.094 127.573C482.49 127.573 484.851 126.141 486.178 123.276H500.664C499.921 126.194 498.568 128.82 496.604 131.155C494.694 133.49 492.28 135.32 489.362 136.647C486.443 137.973 483.18 138.637 479.572 138.637C475.221 138.637 471.347 137.708 467.951 135.851C464.556 133.994 461.902 131.341 459.992 127.892C458.082 124.443 457.127 120.41 457.127 115.794C457.127 111.178 458.056 107.145 459.913 103.696C461.823 100.247 464.476 97.5939 467.872 95.7367C471.268 93.8796 475.168 92.951 479.572 92.951C483.87 92.951 487.69 93.8531 491.033 95.6572C494.376 97.4612 496.976 100.035 498.833 103.378C500.743 106.72 501.698 110.62 501.698 115.078ZM487.77 111.496C487.77 109.161 486.974 107.304 485.382 105.924C483.79 104.545 481.8 103.855 479.413 103.855C477.131 103.855 475.194 104.518 473.602 105.845C472.064 107.171 471.109 109.055 470.737 111.496H487.77ZM565.548 93.1102C571.066 93.1102 575.444 94.7816 578.68 98.1245C581.97 101.467 583.615 106.11 583.615 112.053V138H570.085V113.884C570.085 111.018 569.315 108.816 567.776 107.278C566.291 105.686 564.221 104.89 561.568 104.89C558.915 104.89 556.819 105.686 555.28 107.278C553.795 108.816 553.052 111.018 553.052 113.884V138H539.521V113.884C539.521 111.018 538.752 108.816 537.213 107.278C535.727 105.686 533.658 104.89 531.005 104.89C528.352 104.89 526.256 105.686 524.717 107.278C523.231 108.816 522.489 111.018 522.489 113.884V138H508.878V93.5878H522.489V99.1592C523.868 97.3021 525.672 95.8429 527.901 94.7816C530.129 93.6674 532.65 93.1102 535.462 93.1102C538.805 93.1102 541.776 93.8265 544.376 95.2592C547.029 96.6918 549.099 98.7347 550.585 101.388C552.123 98.9469 554.219 96.9572 556.872 95.4184C559.525 93.8796 562.417 93.1102 565.548 93.1102ZM607.294 115.714C607.294 111.151 608.143 107.145 609.841 103.696C611.592 100.247 613.953 97.5939 616.925 95.7367C619.896 93.8796 623.213 92.951 626.874 92.951C630.005 92.951 632.737 93.5878 635.072 94.8612C637.46 96.1347 639.29 97.8061 640.564 99.8755V93.5878H654.174V138H640.564V131.712C639.237 133.782 637.38 135.453 634.992 136.727C632.658 138 629.925 138.637 626.794 138.637C623.186 138.637 619.896 137.708 616.925 135.851C613.953 133.941 611.592 131.261 609.841 127.812C608.143 124.31 607.294 120.278 607.294 115.714ZM640.564 115.794C640.564 112.398 639.609 109.718 637.698 107.755C635.841 105.792 633.56 104.81 630.853 104.81C628.147 104.81 625.839 105.792 623.929 107.755C622.072 109.665 621.143 112.318 621.143 115.714C621.143 119.11 622.072 121.816 623.929 123.833C625.839 125.796 628.147 126.778 630.853 126.778C633.56 126.778 635.841 125.796 637.698 123.833C639.609 121.869 640.564 119.19 640.564 115.794ZM680.894 92.951C684.024 92.951 686.757 93.5878 689.092 94.8612C691.479 96.1347 693.31 97.8061 694.584 99.8755V93.5878H708.194V137.92C708.194 142.006 707.371 145.694 705.726 148.984C704.135 152.327 701.667 154.98 698.324 156.943C695.035 158.906 690.922 159.888 685.988 159.888C679.408 159.888 674.075 158.322 669.99 155.192C665.904 152.114 663.569 147.922 662.986 142.616H676.437C676.861 144.314 677.869 145.641 679.461 146.596C681.053 147.604 683.016 148.108 685.351 148.108C688.163 148.108 690.392 147.286 692.037 145.641C693.735 144.049 694.584 141.476 694.584 137.92V131.633C693.257 133.702 691.426 135.4 689.092 136.727C686.757 138 684.024 138.637 680.894 138.637C677.233 138.637 673.916 137.708 670.945 135.851C667.973 133.941 665.612 131.261 663.861 127.812C662.163 124.31 661.314 120.278 661.314 115.714C661.314 111.151 662.163 107.145 663.861 103.696C665.612 100.247 667.973 97.5939 670.945 95.7367C673.916 93.8796 677.233 92.951 680.894 92.951ZM694.584 115.794C694.584 112.398 693.628 109.718 691.718 107.755C689.861 105.792 687.579 104.81 684.873 104.81C682.167 104.81 679.859 105.792 677.949 107.755C676.092 109.665 675.163 112.318 675.163 115.714C675.163 119.11 676.092 121.816 677.949 123.833C679.859 125.796 682.167 126.778 684.873 126.778C687.579 126.778 689.861 125.796 691.718 123.833C693.628 121.869 694.584 119.19 694.584 115.794ZM759.905 115.078C759.905 116.351 759.826 117.678 759.667 119.057H728.865C729.077 121.816 729.952 123.939 731.491 125.424C733.083 126.857 735.02 127.573 737.301 127.573C740.697 127.573 743.058 126.141 744.385 123.276H758.871C758.128 126.194 756.775 128.82 754.812 131.155C752.901 133.49 750.487 135.32 747.569 136.647C744.65 137.973 741.387 138.637 737.779 138.637C733.428 138.637 729.554 137.708 726.158 135.851C722.763 133.994 720.109 131.341 718.199 127.892C716.289 124.443 715.334 120.41 715.334 115.794C715.334 111.178 716.263 107.145 718.12 103.696C720.03 100.247 722.683 97.5939 726.079 95.7367C729.475 93.8796 733.375 92.951 737.779 92.951C742.077 92.951 745.897 93.8531 749.24 95.6572C752.583 97.4612 755.183 100.035 757.04 103.378C758.95 106.72 759.905 110.62 759.905 115.078ZM745.977 111.496C745.977 109.161 745.181 107.304 743.589 105.924C741.997 104.545 740.007 103.855 737.62 103.855C735.338 103.855 733.401 104.518 731.809 105.845C730.271 107.171 729.316 109.055 728.944 111.496H745.977ZM794.147 93.1102C799.347 93.1102 803.485 94.8082 806.563 98.2041C809.694 101.547 811.259 106.163 811.259 112.053V138H797.728V113.884C797.728 110.912 796.959 108.604 795.42 106.959C793.881 105.314 791.812 104.492 789.212 104.492C786.612 104.492 784.543 105.314 783.004 106.959C781.465 108.604 780.696 110.912 780.696 113.884V138H767.085V93.5878H780.696V99.4776C782.075 97.5143 783.932 95.9755 786.267 94.8612C788.602 93.6939 791.228 93.1102 794.147 93.1102ZM818.01 115.794C818.01 111.178 818.939 107.145 820.796 103.696C822.706 100.247 825.333 97.5939 828.676 95.7367C832.072 93.8796 835.945 92.951 840.296 92.951C845.868 92.951 850.51 94.4102 854.225 97.3286C857.992 100.247 860.459 104.359 861.627 109.665H847.141C845.921 106.269 843.559 104.571 840.057 104.571C837.564 104.571 835.574 105.553 834.088 107.516C832.602 109.427 831.859 112.186 831.859 115.794C831.859 119.402 832.602 122.188 834.088 124.151C835.574 126.061 837.564 127.016 840.057 127.016C843.559 127.016 845.921 125.318 847.141 121.922H861.627C860.459 127.122 857.992 131.208 854.225 134.18C850.457 137.151 845.815 138.637 840.296 138.637C835.945 138.637 832.072 137.708 828.676 135.851C825.333 133.994 822.706 131.341 820.796 127.892C818.939 124.443 818.01 120.41 818.01 115.794ZM914.274 93.5878L886.417 159.092H871.772L881.96 136.488L863.893 93.5878H879.095L889.362 121.365L899.55 93.5878H914.274Z" fill="black"/>
</svg>
